<svg xmlns="http://www.w3.org/2000/svg" width="32" height="32" viewBox="0 0 24 24"><g fill="none" stroke="black" stroke-linecap="round" stroke-linejoin="round" stroke-width="1.5" color="black"><path d="M18.91 18c.915 1.368 1.301 2.203.977 2.9q-.06.128-.14.247c-.575.853-2.06.853-5.03.853H9.283c-2.97 0-4.454 0-5.029-.853a2 2 0 0 1-.14-.247c-.324-.697.062-1.532.976-2.9M15 9.5a3 3 0 1 1-6 0a3 3 0 0 1 6 0"/><path d="M12 2c4.059 0 7.5 3.428 7.5 7.587c0 4.225-3.497 7.19-6.727 9.206a1.55 1.55 0 0 1-1.546 0C8.003 16.757 4.5 13.827 4.5 9.587C4.5 5.428 7.941 2 12 2"/></g></svg>